<svg xmlns="http://www.w3.org/2000/svg" version="1.1" width="1024" height="680">
<rect x="0" y="0" width="1024" height="680" fill="#242a2a" />
<g transform="scale(4.000000) translate(0.5 0.5)">
<polygon fill="#769193" fill-opacity="0.501961" points="222,18 39,54 188,88" />
<polygon fill="#120c08" fill-opacity="0.501961" points="-16,67 4,-16 271,1" />
<polygon fill="#110c08" fill-opacity="0.501961" points="-15,109 271,163 7,185" />
<polygon fill="#34565c" fill-opacity="0.501961" points="154,140 193,98 29,95" />
<polygon fill="#120e0a" fill-opacity="0.501961" points="264,-11 168,142 271,163" />
<polygon fill="#607c80" fill-opacity="0.501961" points="243,41 160,36 227,20" />
<polygon fill="#4c676b" fill-opacity="0.501961" points="39,65 113,74 80,84" />
<polygon fill="#617474" fill-opacity="0.501961" points="205,23 109,37 111,73" />
<polygon fill="#13120f" fill-opacity="0.501961" points="-16,158 52,52 -4,59" />
<polygon fill="#13110f" fill-opacity="0.501961" points="266,16 175,26 237,-1" />
<polygon fill="#10110f" fill-opacity="0.501961" points="188,109 204,43 231,39" />
<polygon fill="#2e2522" fill-opacity="0.501961" points="112,54 100,3 96,105" />
<polygon fill="#233b3e" fill-opacity="0.501961" points="179,139 186,109 69,125" />
<polygon fill="#121f24" fill-opacity="0.501961" points="27,71 89,80 54,107" />
<polygon fill="#3d5457" fill-opacity="0.501961" points="189,99 158,120 85,100" />
<polygon fill="#b7845b" fill-opacity="0.501961" points="120,72 100,67 103,61" />
<polygon fill="#3f565c" fill-opacity="0.501961" points="210,41 189,78 89,62" />
<polygon fill="#445c60" fill-opacity="0.501961" points="46,53 87,55 100,40" />
<polygon fill="#4f6568" fill-opacity="0.501961" points="168,43 229,21 242,37" />
<polygon fill="#171713" fill-opacity="0.501961" points="32,149 55,94 66,127" />
<polygon fill="#435f66" fill-opacity="0.501961" points="53,78 92,73 45,65" />
<polygon fill="#233b3f" fill-opacity="0.501961" points="59,96 147,139 64,124" />
<polygon fill="#768987" fill-opacity="0.501961" points="191,78 193,87 178,83" />
<polygon fill="#40332f" fill-opacity="0.501961" points="189,87 153,81 169,89" />
<polygon fill="#20424a" fill-opacity="0.501961" points="47,110 48,94 12,102" />
<polygon fill="#130f09" fill-opacity="0.501961" points="176,115 167,118 174,140" />
<polygon fill="#1b1a18" fill-opacity="0.501961" points="271,23 199,20 242,-16" />
<polygon fill="#2a4a50" fill-opacity="0.501961" points="190,103 177,141 176,103" />
<polygon fill="#ffe47d" fill-opacity="0.501961" points="111,73 110,72 111,75" />
<polygon fill="#24221d" fill-opacity="0.501961" points="94,67 55,57 64,68" />
<polygon fill="#172429" fill-opacity="0.501961" points="45,75 98,99 152,90" />
<polygon fill="#5f7a7d" fill-opacity="0.501961" points="102,54 101,43 107,43" />
<polygon fill="#222424" fill-opacity="0.501961" points="113,128 85,117 146,121" />
<polygon fill="#9f7553" fill-opacity="0.501961" points="107,68 102,75 102,63" />
<polygon fill="#607678" fill-opacity="0.501961" points="140,47 115,38 175,27" />
<polygon fill="#2d211f" fill-opacity="0.501961" points="109,87 108,58 103,78" />
<polygon fill="#141411" fill-opacity="0.501961" points="44,119 -8,110 20,104" />
<polygon fill="#696b61" fill-opacity="0.501961" points="93,53 52,56 96,66" />
<polygon fill="#191a18" fill-opacity="0.501961" points="121,24 101,-1 37,58" />
<polygon fill="#314b52" fill-opacity="0.501961" points="186,59 193,83 200,60" />
<polygon fill="#3e3836" fill-opacity="0.501961" points="170,87 178,90 174,69" />
<polygon fill="#1a1a18" fill-opacity="0.501961" points="74,16 74,44 180,24" />
<polygon fill="#4b6467" fill-opacity="0.501961" points="68,68 93,83 96,75" />
<polygon fill="#495e62" fill-opacity="0.501961" points="187,26 219,21 232,34" />
<polygon fill="#151818" fill-opacity="0.501961" points="159,123 144,120 172,118" />
<polygon fill="#1a1917" fill-opacity="0.501961" points="237,185 271,153 174,117" />
<polygon fill="#241f1f" fill-opacity="0.501961" points="99,58 101,72 95,85" />
<polygon fill="#da8f57" fill-opacity="0.501961" points="84,61 87,66 87,62" />
<polygon fill="#1b282b" fill-opacity="0.501961" points="39,95 6,112 49,50" />
<polygon fill="#4a4541" fill-opacity="0.501961" points="118,99 99,98 110,120" />
<polygon fill="#566a6c" fill-opacity="0.501961" points="111,60 110,38 145,32" />
<polygon fill="#745e53" fill-opacity="0.501961" points="160,83 129,74 148,73" />
<polygon fill="#f2ab66" fill-opacity="0.501961" points="117,69 106,67 116,72" />
<polygon fill="#2b4448" fill-opacity="0.501961" points="130,136 100,123 166,125" />
<polygon fill="#2b2c2c" fill-opacity="0.501961" points="108,70 155,81 125,83" />
<polygon fill="#181c1c" fill-opacity="0.501961" points="214,86 180,86 195,108" />
<polygon fill="#19160f" fill-opacity="0.501961" points="38,63 53,84 55,111" />
<polygon fill="#1b1b18" fill-opacity="0.501961" points="251,35 271,-2 167,-15" />
<polygon fill="#1a1b19" fill-opacity="0.501961" points="268,-16 164,27 251,16" />
<polygon fill="#2b4448" fill-opacity="0.501961" points="69,113 56,93 109,101" />
<polygon fill="#546a6b" fill-opacity="0.501961" points="148,60 197,35 129,47" />
<polygon fill="#231e21" fill-opacity="0.501961" points="97,52 102,57 100,41" />
<polygon fill="#607372" fill-opacity="0.501961" points="176,81 194,84 189,72" />
<polygon fill="#1e2323" fill-opacity="0.501961" points="83,62 55,62 99,74" />
<polygon fill="#495f62" fill-opacity="0.501961" points="47,54 95,60 97,41" />
<polygon fill="#526668" fill-opacity="0.501961" points="205,46 231,27 192,32" />
<polygon fill="#1b1a18" fill-opacity="0.501961" points="208,181 245,23 271,164" />
<polygon fill="#17252b" fill-opacity="0.501961" points="128,96 131,77 191,98" />
<polygon fill="#ab855d" fill-opacity="0.501961" points="71,55 82,64 76,62" />
<polygon fill="#b58651" fill-opacity="0.501961" points="66,60 64,57 63,61" />
<polygon fill="#254044" fill-opacity="0.501961" points="166,123 168,141 101,130" />
<polygon fill="#d6824f" fill-opacity="0.501961" points="96,63 95,68 94,65" />
<polygon fill="#42585c" fill-opacity="0.501961" points="57,51 71,60 90,42" />
<polygon fill="#1c1c1a" fill-opacity="0.501961" points="108,53 98,-16 117,-16" />
<polygon fill="#1b1a17" fill-opacity="0.501961" points="-16,71 -16,128 92,2" />
<polygon fill="#324a4d" fill-opacity="0.501961" points="109,119 122,96 153,120" />
<polygon fill="#7a6257" fill-opacity="0.501961" points="123,68 135,76 118,71" />
<polygon fill="#1a1b19" fill-opacity="0.501961" points="120,134 198,147 102,176" />
<polygon fill="#1a1e1c" fill-opacity="0.501961" points="93,72 91,66 108,72" />
<polygon fill="#334e52" fill-opacity="0.501961" points="187,102 129,97 183,119" />
<polygon fill="#485e61" fill-opacity="0.501961" points="161,79 182,44 111,67" />
<polygon fill="#3f5058" fill-opacity="0.501961" points="102,76 112,76 101,80" />
<polygon fill="#d69e68" fill-opacity="0.501961" points="102,67 117,70 110,66" />
<polygon fill="#8e5332" fill-opacity="0.501961" points="179,89 175,90 171,86" />
<polygon fill="#222223" fill-opacity="0.501961" points="112,91 106,67 104,99" />
<polygon fill="#181a18" fill-opacity="0.501961" points="194,75 233,40 210,44" />
<polygon fill="#627575" fill-opacity="0.501961" points="130,35 186,27 183,42" />
<polygon fill="#1c1b19" fill-opacity="0.501961" points="-16,88 117,169 4,185" />
<polygon fill="#4e6467" fill-opacity="0.501961" points="97,79 95,82 87,74" />
<polygon fill="#526567" fill-opacity="0.501961" points="65,55 98,48 95,63" />
<polygon fill="#3b555c" fill-opacity="0.501961" points="234,27 244,43 230,39" />
<polygon fill="#244046" fill-opacity="0.501961" points="72,127 63,115 93,123" />
<polygon fill="#595d51" fill-opacity="0.501961" points="124,81 123,83 129,86" />
<polygon fill="#1d282c" fill-opacity="0.501961" points="120,84 176,85 158,98" />
<polygon fill="#263f43" fill-opacity="0.501961" points="48,94 30,109 53,106" />
<polygon fill="#161917" fill-opacity="0.501961" points="71,114 39,111 52,106" />
<polygon fill="#947265" fill-opacity="0.501961" points="160,82 148,78 155,78" />
<polygon fill="#5c7173" fill-opacity="0.501961" points="100,52 106,45 107,51" />
<polygon fill="#342527" fill-opacity="0.501961" points="105,58 109,48 108,67" />
<polygon fill="#172e36" fill-opacity="0.501961" points="173,90 191,88 184,85" />
<polygon fill="#1a282d" fill-opacity="0.501961" points="78,76 43,76 101,97" />
<polygon fill="#1a1b19" fill-opacity="0.501961" points="197,185 166,169 169,125" />
<polygon fill="#1d2425" fill-opacity="0.501961" points="76,68 43,62 56,56" />
<polygon fill="#48606c" fill-opacity="0.501961" points="102,64 103,59 107,66" />
<polygon fill="#3e5459" fill-opacity="0.501961" points="190,74 171,72 211,40" />
<polygon fill="#301b19" fill-opacity="0.501961" points="98,64 98,52 103,54" />
<polygon fill="#375055" fill-opacity="0.501961" points="74,69 44,64 48,74" />
<polygon fill="#1d2628" fill-opacity="0.501961" points="81,62 67,69 86,68" />
<polygon fill="#1b1a17" fill-opacity="0.501961" points="188,108 204,61 271,28" />
<polygon fill="#203c45" fill-opacity="0.501961" points="227,40 220,38 213,40" />
<polygon fill="#1b1b19" fill-opacity="0.501961" points="98,36 -2,70 0,37" />
<polygon fill="#1b1b19" fill-opacity="0.501961" points="261,78 269,-10 218,-13" />
<polygon fill="#1a1b19" fill-opacity="0.501961" points="70,139 57,101 37,128" />
<polygon fill="#161e20" fill-opacity="0.501961" points="89,118 75,119 70,113" />
<polygon fill="#25363d" fill-opacity="0.501961" points="38,67 40,74 29,75" />
<polygon fill="#475a5d" fill-opacity="0.501961" points="110,66 156,78 172,61" />
<polygon fill="#294347" fill-opacity="0.501961" points="84,94 83,116 56,96" />
<polygon fill="#151917" fill-opacity="0.501961" points="144,120 151,123 139,122" />
<polygon fill="#b59165" fill-opacity="0.501961" points="63,57 63,54 60,56" />
<polygon fill="#9a7b47" fill-opacity="0.501961" points="99,74 104,70 105,73" />
<polygon fill="#192e35" fill-opacity="0.501961" points="230,42 223,38 238,41" />
<polygon fill="#1c2d34" fill-opacity="0.501961" points="127,88 109,82 117,72" />
<polygon fill="#222a2a" fill-opacity="0.501961" points="60,62 79,64 71,60" />
<polygon fill="#1d1d1a" fill-opacity="0.501961" points="105,123 94,119 114,120" />
<polygon fill="#2f3d44" fill-opacity="0.501961" points="177,71 173,89 171,69" />
<polygon fill="#15201f" fill-opacity="0.501961" points="135,121 111,120 122,124" />
<polygon fill="#3c393a" fill-opacity="0.501961" points="108,69 103,83 105,57" />
<polygon fill="#4e6366" fill-opacity="0.501961" points="167,53 198,55 189,61" />
<polygon fill="#5a4b42" fill-opacity="0.501961" points="116,101 105,102 112,97" />
<polygon fill="#4e6264" fill-opacity="0.501961" points="224,22 242,38 181,28" />
<polygon fill="#967952" fill-opacity="0.501961" points="49,55 51,54 52,58" />
<polygon fill="#20383d" fill-opacity="0.501961" points="17,101 47,91 44,117" />
<polygon fill="#191a17" fill-opacity="0.501961" points="33,97 6,74 15,98" />
<polygon fill="#1b1b19" fill-opacity="0.501961" points="97,-16 1,56 225,16" />
<polygon fill="#26373b" fill-opacity="0.501961" points="104,122 110,132 70,126" />
<polygon fill="#181814" fill-opacity="0.501961" points="35,61 51,82 41,56" />
<polygon fill="#264347" fill-opacity="0.501961" points="184,126 177,137 178,122" />
<polygon fill="#294246" fill-opacity="0.501961" points="170,121 162,140 137,126" />
<polygon fill="#475b5e" fill-opacity="0.501961" points="71,58 93,42 59,53" />
<polygon fill="#3c5258" fill-opacity="0.501961" points="68,48 63,61 63,52" />
<polygon fill="#23211f" fill-opacity="0.501961" points="107,69 103,70 109,81" />
<polygon fill="#3a3e3e" fill-opacity="0.501961" points="102,118 97,101 118,120" />
<polygon fill="#575957" fill-opacity="0.501961" points="173,80 159,80 168,86" />
<polygon fill="#5a6666" fill-opacity="0.501961" points="106,67 105,58 101,60" />
<polygon fill="#375156" fill-opacity="0.501961" points="198,52 175,52 215,41" />
<polygon fill="#3d5359" fill-opacity="0.501961" points="78,60 86,65 84,59" />
<polygon fill="#1a1c1a" fill-opacity="0.501961" points="43,111 -16,107 -16,130" />
<polygon fill="#1e2d33" fill-opacity="0.501961" points="130,79 132,96 115,97" />
<polygon fill="#56696b" fill-opacity="0.501961" points="217,39 188,31 232,30" />
<polygon fill="#364e52" fill-opacity="0.501961" points="113,98 168,118 164,98" />
<polygon fill="#5f7273" fill-opacity="0.501961" points="112,55 110,49 132,47" />
<polygon fill="#4b6062" fill-opacity="0.501961" points="195,82 176,71 191,71" />
<polygon fill="#1c292e" fill-opacity="0.501961" points="55,93 48,74 93,95" />
<polygon fill="#192429" fill-opacity="0.501961" points="27,90 49,94 34,70" />
<polygon fill="#343e40" fill-opacity="0.501961" points="124,124 103,123 108,129" />
<polygon fill="#7f6b5f" fill-opacity="0.501961" points="125,72 134,71 136,76" />
<polygon fill="#1f201e" fill-opacity="0.501961" points="108,97 96,93 98,73" />
<polygon fill="#191b18" fill-opacity="0.501961" points="170,136 175,115 169,115" />
<polygon fill="#425156" fill-opacity="0.501961" points="110,76 113,79 113,75" />
<polygon fill="#2c4346" fill-opacity="0.501961" points="73,114 102,105 85,94" />
<polygon fill="#866753" fill-opacity="0.501961" points="160,80 155,80 158,84" />
<polygon fill="#212d32" fill-opacity="0.501961" points="177,91 193,92 177,85" />
<polygon fill="#1b1b19" fill-opacity="0.501961" points="271,166 168,183 203,59" />
<polygon fill="#1b2427" fill-opacity="0.501961" points="135,77 156,82 152,94" />
<polygon fill="#485c5f" fill-opacity="0.501961" points="140,74 178,55 110,65" />
<polygon fill="#243c45" fill-opacity="0.501961" points="199,63 195,81 194,69" />
<polygon fill="#6d7c7a" fill-opacity="0.501961" points="184,85 178,81 191,80" />
<polygon fill="#1c2529" fill-opacity="0.501961" points="91,83 118,78 114,85" />
<polygon fill="#7c695e" fill-opacity="0.501961" points="142,74 133,74 150,79" />
<polygon fill="#506465" fill-opacity="0.501961" points="136,65 112,55 180,44" />
<polygon fill="#617475" fill-opacity="0.501961" points="140,41 189,36 168,28" />
<polygon fill="#1b1b19" fill-opacity="0.501961" points="271,10 125,-11 197,23" />
<polygon fill="#485d5f" fill-opacity="0.501961" points="83,71 60,72 86,78" />
<polygon fill="#586b6b" fill-opacity="0.501961" points="75,54 97,50 93,57" />
<polygon fill="#20353a" fill-opacity="0.501961" points="21,98 16,104 8,105" />
<polygon fill="#3f5155" fill-opacity="0.501961" points="95,68 87,62 91,57" />
<polygon fill="#1b1c1a" fill-opacity="0.501961" points="247,185 178,119 249,145" />
<polygon fill="#536869" fill-opacity="0.501961" points="186,40 160,35 140,54" />
<polygon fill="#3a5156" fill-opacity="0.501961" points="196,66 176,62 195,75" />
<polygon fill="#344951" fill-opacity="0.501961" points="54,53 48,54 53,55" />
<polygon fill="#2c292a" fill-opacity="0.501961" points="172,95 167,86 174,83" />
<polygon fill="#232e32" fill-opacity="0.501961" points="116,80 118,71 126,92" />
<polygon fill="#495f62" fill-opacity="0.501961" points="186,27 227,30 211,22" />
<polygon fill="#1a3033" fill-opacity="0.501961" points="178,143 174,142 181,135" />
<polygon fill="#313639" fill-opacity="0.501961" points="110,39 101,41 110,44" />
<polygon fill="#826150" fill-opacity="0.501961" points="124,73 118,72 121,71" />
<polygon fill="#1b1b19" fill-opacity="0.501961" points="248,1 157,-10 243,28" />
<polygon fill="#242522" fill-opacity="0.501961" points="93,73 110,71 90,68" />
<polygon fill="#1f2425" fill-opacity="0.501961" points="122,74 124,81 131,76" />
<polygon fill="#586b6b" fill-opacity="0.501961" points="183,72 179,85 175,82" />
<polygon fill="#181712" fill-opacity="0.501961" points="56,96 58,107 50,95" />
<polygon fill="#4e6162" fill-opacity="0.501961" points="91,41 95,46 98,41" />
<polygon fill="#384e55" fill-opacity="0.501961" points="61,59 53,56 57,50" />
<polygon fill="#c6a465" fill-opacity="0.501961" points="102,73 100,74 105,75" />
<polygon fill="#1a323b" fill-opacity="0.501961" points="209,45 218,40 211,40" />
<polygon fill="#202c31" fill-opacity="0.501961" points="56,75 49,75 55,90" />
<polygon fill="#2d3234" fill-opacity="0.501961" points="101,68 99,77 102,82" />
<polygon fill="#1b1c1a" fill-opacity="0.501961" points="105,37 -7,65 92,1" />
<polygon fill="#1d2d33" fill-opacity="0.501961" points="96,85 86,90 80,77" />
<polygon fill="#263d42" fill-opacity="0.501961" points="30,111 51,103 32,99" />
<polygon fill="#1a1e1b" fill-opacity="0.501961" points="47,114 72,115 48,106" />
<polygon fill="#465c5f" fill-opacity="0.501961" points="93,81 70,71 89,71" />
<polygon fill="#243e43" fill-opacity="0.501961" points="77,115 63,110 58,99" />
<polygon fill="#384d4f" fill-opacity="0.501961" points="107,114 145,99 113,101" />
<polygon fill="#313f40" fill-opacity="0.501961" points="105,112 85,97 105,99" />
<polygon fill="#41575a" fill-opacity="0.501961" points="73,69 64,77 51,72" />
<polygon fill="#2e2324" fill-opacity="0.501961" points="106,66 109,65 108,56" />
<polygon fill="#1b1b19" fill-opacity="0.501961" points="209,48 223,77 194,81" />
<polygon fill="#1b1b19" fill-opacity="0.501961" points="-16,174 88,135 -6,100" />
<polygon fill="#1e393f" fill-opacity="0.501961" points="41,117 33,113 45,113" />
<polygon fill="#161a16" fill-opacity="0.501961" points="17,103 29,109 22,113" />
<polygon fill="#192323" fill-opacity="0.501961" points="164,121 152,119 149,123" />
<polygon fill="#181c19" fill-opacity="0.501961" points="152,149 128,136 179,144" />
<polygon fill="#1b1e1e" fill-opacity="0.501961" points="52,62 70,68 61,59" />
<polygon fill="#1f292d" fill-opacity="0.501961" points="109,97 141,89 139,77" />
<polygon fill="#263e42" fill-opacity="0.501961" points="69,117 88,129 79,119" />
<polygon fill="#1b1b19" fill-opacity="0.501961" points="118,7 100,4 99,46" />
<polygon fill="#473730" fill-opacity="0.501961" points="182,95 184,93 182,89" />
<polygon fill="#a18055" fill-opacity="0.501961" points="51,54 54,56 51,58" />
<polygon fill="#475c61" fill-opacity="0.501961" points="210,24 238,31 223,22" />
<polygon fill="#2e3f46" fill-opacity="0.501961" points="53,55 48,61 56,56" />
<polygon fill="#3f565b" fill-opacity="0.501961" points="77,57 81,58 75,60" />
<polygon fill="#455b5f" fill-opacity="0.501961" points="197,55 211,39 201,38" />
<polygon fill="#223b3f" fill-opacity="0.501961" points="119,124 123,134 152,138" />
<polygon fill="#272d2e" fill-opacity="0.501961" points="44,65 49,57 41,57" />
<polygon fill="#274247" fill-opacity="0.501961" points="138,100 148,96 132,96" />
<polygon fill="#2a4146" fill-opacity="0.501961" points="37,68 39,71 33,72" />
<polygon fill="#68797a" fill-opacity="0.501961" points="124,48 128,50 124,55" />
<polygon fill="#233d41" fill-opacity="0.501961" points="167,140 169,126 139,135" />
<polygon fill="#516465" fill-opacity="0.501961" points="119,45 109,42 124,53" />
<polygon fill="#2d4448" fill-opacity="0.501961" points="96,99 68,101 78,115" />
<polygon fill="#b06338" fill-opacity="0.501961" points="174,86 176,87 173,88" />
<polygon fill="#516465" fill-opacity="0.501961" points="63,52 86,52 97,63" />
<polygon fill="#272323" fill-opacity="0.501961" points="97,61 97,74 101,74" />
<polygon fill="#1c1b19" fill-opacity="0.501961" points="142,185 201,123 271,160" />
<polygon fill="#495d5f" fill-opacity="0.501961" points="162,80 129,71 175,66" />
<polygon fill="#c98e58" fill-opacity="0.501961" points="75,59 77,62 75,63" />
<polygon fill="#1d272a" fill-opacity="0.501961" points="66,61 75,62 72,64" />
<polygon fill="#192222" fill-opacity="0.501961" points="89,121 104,121 87,116" />
<polygon fill="#181f1e" fill-opacity="0.501961" points="134,122 138,123 140,119" />
<polygon fill="#1a282c" fill-opacity="0.501961" points="173,85 188,93 195,89" />
<polygon fill="#4d5a5b" fill-opacity="0.501961" points="76,57 74,63 78,58" />
<polygon fill="#1a1f1b" fill-opacity="0.501961" points="169,121 170,141 176,119" />
<polygon fill="#405459" fill-opacity="0.501961" points="59,56 51,54 58,51" />
<polygon fill="#7b5441" fill-opacity="0.501961" points="130,76 133,75 126,74" />
<polygon fill="#556869" fill-opacity="0.501961" points="106,44 104,52 100,50" />
<polygon fill="#586b6c" fill-opacity="0.501961" points="213,33 184,26 193,34" />
<polygon fill="#42585b" fill-opacity="0.501961" points="70,48 73,62 61,52" />
<polygon fill="#2f474b" fill-opacity="0.501961" points="126,119 164,118 185,100" />
<polygon fill="#262523" fill-opacity="0.501961" points="131,76 123,74 127,78" />
<polygon fill="#1a303a" fill-opacity="0.501961" points="209,43 210,46 205,49" />
<polygon fill="#234046" fill-opacity="0.501961" points="43,93 49,98 33,94" />
<polygon fill="#617575" fill-opacity="0.501961" points="147,46 163,31 137,43" />
<polygon fill="#1e2022" fill-opacity="0.501961" points="170,93 180,89 181,98" />
<polygon fill="#342523" fill-opacity="0.501961" points="104,54 105,57 99,56" />
<polygon fill="#45595d" fill-opacity="0.501961" points="69,69 96,82 96,74" />
</g>
</svg>