<svg xmlns="http://www.w3.org/2000/svg" version="1.1" width="1024" height="680">
<rect x="0" y="0" width="1024" height="680" fill="#131c2d" />
<g transform="scale(4.000000) translate(0.5 0.5)">
<polygon fill="#2e4c7e" fill-opacity="0.501961" points="126,-11 -16,71 226,84" />
<polygon fill="#000000" fill-opacity="0.501961" points="271,111 -16,162 248,185" />
<polygon fill="#000000" fill-opacity="0.501961" points="-3,69 -3,117 179,93" />
<polygon fill="#000000" fill-opacity="0.501961" points="271,75 105,91 254,116" />
<polygon fill="#495d89" fill-opacity="0.501961" points="87,78 155,85 104,31" />
<polygon fill="#44495b" fill-opacity="0.501961" points="107,131 23,115 182,103" />
<polygon fill="#000001" fill-opacity="0.501961" points="230,157 -16,123 7,185" />
<polygon fill="#0d284d" fill-opacity="0.501961" points="-16,31 248,67 145,-16" />
<polygon fill="#31394b" fill-opacity="0.501961" points="271,115 131,103 201,131" />
<polygon fill="#24497a" fill-opacity="0.501961" points="139,64 57,71 108,13" />
<polygon fill="#060001" fill-opacity="0.501961" points="162,101 -1,115 8,73" />
<polygon fill="#00040f" fill-opacity="0.501961" points="263,-16 174,-16 267,49" />
<polygon fill="#363446" fill-opacity="0.501961" points="111,81 -16,70 9,39" />
<polygon fill="#30324b" fill-opacity="0.501961" points="115,85 188,36 248,80" />
<polygon fill="#39353d" fill-opacity="0.501961" points="8,134 76,110 -16,116" />
<polygon fill="#040000" fill-opacity="0.501961" points="271,77 152,88 264,119" />
<polygon fill="#0a171f" fill-opacity="0.501961" points="-3,125 206,122 99,153" />
<polygon fill="#020003" fill-opacity="0.501961" points="77,164 271,134 250,185" />
<polygon fill="#101f3c" fill-opacity="0.501961" points="25,-16 247,69 185,-5" />
<polygon fill="#5f79b2" fill-opacity="0.501961" points="105,55 111,75 97,72" />
<polygon fill="#3c4159" fill-opacity="0.501961" points="171,120 199,106 124,106" />
<polygon fill="#112a49" fill-opacity="0.501961" points="116,3 -11,42 9,72" />
<polygon fill="#61474d" fill-opacity="0.501961" points="154,85 106,82 120,73" />
<polygon fill="#404b67" fill-opacity="0.501961" points="101,127 90,111 124,105" />
<polygon fill="#010000" fill-opacity="0.501961" points="35,95 83,77 136,88" />
<polygon fill="#100d0d" fill-opacity="0.501961" points="207,104 79,106 139,84" />
<polygon fill="#001023" fill-opacity="0.501961" points="-16,-4 -16,45 71,-16" />
<polygon fill="#35405d" fill-opacity="0.501961" points="107,79 196,85 142,55" />
<polygon fill="#121b27" fill-opacity="0.501961" points="247,112 271,134 168,131" />
<polygon fill="#573642" fill-opacity="0.501961" points="89,78 37,74 66,68" />
<polygon fill="#14161d" fill-opacity="0.501961" points="86,111 46,100 119,94" />
<polygon fill="#173a60" fill-opacity="0.501961" points="33,62 66,71 111,8" />
<polygon fill="#000001" fill-opacity="0.501961" points="-2,73 -10,104 88,80" />
<polygon fill="#162847" fill-opacity="0.501961" points="105,32 146,5 252,73" />
<polygon fill="#102531" fill-opacity="0.501961" points="-16,120 24,139 91,122" />
<polygon fill="#05020b" fill-opacity="0.501961" points="-16,143 11,185 160,144" />
<polygon fill="#051f3d" fill-opacity="0.501961" points="7,19 89,15 82,-16" />
<polygon fill="#443b47" fill-opacity="0.501961" points="99,109 128,116 155,104" />
<polygon fill="#0a152a" fill-opacity="0.501961" points="217,-3 130,-16 271,56" />
<polygon fill="#1a2838" fill-opacity="0.501961" points="115,111 175,119 97,132" />
<polygon fill="#1e2237" fill-opacity="0.501961" points="252,78 189,84 224,38" />
<polygon fill="#613f43" fill-opacity="0.501961" points="40,72 22,73 12,66" />
<polygon fill="#080609" fill-opacity="0.501961" points="207,113 183,83 254,105" />
<polygon fill="#7b4e4c" fill-opacity="0.501961" points="131,77 134,84 118,83" />
<polygon fill="#2b4c80" fill-opacity="0.501961" points="114,46 94,77 109,14" />
<polygon fill="#3b3c54" fill-opacity="0.501961" points="215,117 171,110 194,105" />
<polygon fill="#3e3642" fill-opacity="0.501961" points="13,122 -3,113 33,116" />
<polygon fill="#000000" fill-opacity="0.501961" points="106,95 174,94 140,84" />
<polygon fill="#040209" fill-opacity="0.501961" points="134,130 120,185 271,166" />
<polygon fill="#030004" fill-opacity="0.501961" points="88,110 61,103 116,101" />
<polygon fill="#16171b" fill-opacity="0.501961" points="147,95 136,108 88,96" />
<polygon fill="#714c48" fill-opacity="0.501961" points="111,109 127,108 118,105" />
<polygon fill="#203356" fill-opacity="0.501961" points="98,30 197,55 170,76" />
<polygon fill="#02060c" fill-opacity="0.501961" points="212,-14 265,31 271,-16" />
<polygon fill="#13151a" fill-opacity="0.501961" points="174,96 239,96 207,105" />
<polygon fill="#4c3744" fill-opacity="0.501961" points="59,110 85,110 67,120" />
<polygon fill="#242835" fill-opacity="0.501961" points="36,100 49,103 55,99" />
<polygon fill="#0b1b34" fill-opacity="0.501961" points="131,23 107,-5 135,-16" />
<polygon fill="#090f19" fill-opacity="0.501961" points="85,157 164,130 5,133" />
<polygon fill="#4e3138" fill-opacity="0.501961" points="50,118 70,112 32,113" />
<polygon fill="#152d3e" fill-opacity="0.501961" points="109,135 96,116 35,121" />
<polygon fill="#2f4769" fill-opacity="0.501961" points="86,116 102,124 115,110" />
<polygon fill="#262e49" fill-opacity="0.501961" points="206,54 228,75 164,85" />
<polygon fill="#030003" fill-opacity="0.501961" points="127,95 133,84 95,84" />
<polygon fill="#020a12" fill-opacity="0.501961" points="-16,6 -8,23 39,-16" />
<polygon fill="#2f4361" fill-opacity="0.501961" points="98,71 65,56 47,69" />
<polygon fill="#010000" fill-opacity="0.501961" points="190,96 202,81 253,89" />
<polygon fill="#2a4681" fill-opacity="0.501961" points="116,20 104,14 103,30" />
<polygon fill="#222d45" fill-opacity="0.501961" points="-16,71 16,73 37,28" />
<polygon fill="#113d6b" fill-opacity="0.501961" points="94,59 77,34 108,29" />
<polygon fill="#6376ab" fill-opacity="0.501961" points="102,68 104,60 111,75" />
<polygon fill="#151521" fill-opacity="0.501961" points="40,102 22,97 2,103" />
<polygon fill="#394161" fill-opacity="0.501961" points="139,85 159,58 122,70" />
<polygon fill="#171c25" fill-opacity="0.501961" points="75,106 54,98 100,99" />
<polygon fill="#46495d" fill-opacity="0.501961" points="161,110 137,106 154,104" />
<polygon fill="#1a2432" fill-opacity="0.501961" points="212,120 163,114 157,128" />
<polygon fill="#1c2432" fill-opacity="0.501961" points="235,109 260,126 218,123" />
<polygon fill="#422934" fill-opacity="0.501961" points="114,83 91,78 104,77" />
<polygon fill="#4d333f" fill-opacity="0.501961" points="72,78 53,68 30,73" />
<polygon fill="#0d101b" fill-opacity="0.501961" points="271,124 156,128 229,146" />
<polygon fill="#070509" fill-opacity="0.501961" points="171,105 191,101 162,99" />
<polygon fill="#253d66" fill-opacity="0.501961" points="115,49 143,49 114,65" />
<polygon fill="#0c2f56" fill-opacity="0.501961" points="51,44 96,8 102,29" />
<polygon fill="#141928" fill-opacity="0.501961" points="230,83 257,74 257,29" />
<polygon fill="#020004" fill-opacity="0.501961" points="202,110 201,100 238,107" />
<polygon fill="#343343" fill-opacity="0.501961" points="130,115 111,107 91,110" />
<polygon fill="#325287" fill-opacity="0.501961" points="97,63 110,37 113,65" />
<polygon fill="#0e1821" fill-opacity="0.501961" points="-16,126 10,142 61,133" />
<polygon fill="#121e28" fill-opacity="0.501961" points="112,119 154,125 100,137" />
<polygon fill="#254974" fill-opacity="0.501961" points="82,68 100,75 99,36" />
<polygon fill="#040209" fill-opacity="0.501961" points="102,152 -9,150 9,185" />
<polygon fill="#525f81" fill-opacity="0.501961" points="106,79 100,71 113,73" />
<polygon fill="#161214" fill-opacity="0.501961" points="201,89 175,86 217,79" />
<polygon fill="#111d36" fill-opacity="0.501961" points="217,19 145,-3 253,68" />
<polygon fill="#0e1d31" fill-opacity="0.501961" points="-16,65 -9,29 53,-7" />
<polygon fill="#000004" fill-opacity="0.501961" points="36,102 36,113 0,108" />
<polygon fill="#132b4c" fill-opacity="0.501961" points="141,8 104,32 161,50" />
<polygon fill="#303246" fill-opacity="0.501961" points="183,72 182,84 208,81" />
<polygon fill="#020003" fill-opacity="0.501961" points="271,93 241,78 245,115" />
<polygon fill="#3a292e" fill-opacity="0.501961" points="113,106 104,111 93,109" />
<polygon fill="#000000" fill-opacity="0.501961" points="131,101 130,106 122,105" />
<polygon fill="#0e2747" fill-opacity="0.501961" points="72,6 109,7 25,45" />
<polygon fill="#141518" fill-opacity="0.501961" points="164,97 219,97 197,106" />
<polygon fill="#393a4b" fill-opacity="0.501961" points="141,75 130,84 172,84" />
<polygon fill="#050102" fill-opacity="0.501961" points="185,95 130,89 158,84" />
<polygon fill="#0b1a24" fill-opacity="0.501961" points="116,141 39,130 88,124" />
<polygon fill="#18253f" fill-opacity="0.501961" points="234,82 221,40 166,17" />
<polygon fill="#050207" fill-opacity="0.501961" points="14,73 56,77 -9,88" />
<polygon fill="#475171" fill-opacity="0.501961" points="103,117 106,109 107,124" />
<polygon fill="#08070f" fill-opacity="0.501961" points="191,162 118,141 262,135" />
<polygon fill="#222a3b" fill-opacity="0.501961" points="209,111 178,122 233,118" />
<polygon fill="#30384e" fill-opacity="0.501961" points="104,108 128,118 149,114" />
<polygon fill="#1b2b49" fill-opacity="0.501961" points="189,68 222,63 171,31" />
<polygon fill="#29385a" fill-opacity="0.501961" points="158,50 193,76 142,73" />
<polygon fill="#2e3144" fill-opacity="0.501961" points="-7,64 25,72 3,73" />
<polygon fill="#493339" fill-opacity="0.501961" points="42,118 12,117 29,113" />
<polygon fill="#1c293d" fill-opacity="0.501961" points="13,114 -16,113 7,122" />
<polygon fill="#845856" fill-opacity="0.501961" points="130,80 118,80 119,83" />
<polygon fill="#1d2a4c" fill-opacity="0.501961" points="120,22 105,-16 105,15" />
<polygon fill="#0e0c14" fill-opacity="0.501961" points="229,100 271,104 271,92" />
<polygon fill="#364566" fill-opacity="0.501961" points="107,80 121,57 144,75" />
<polygon fill="#121414" fill-opacity="0.501961" points="132,94 165,97 141,106" />
<polygon fill="#1b304e" fill-opacity="0.501961" points="26,66 23,39 72,38" />
<polygon fill="#20467a" fill-opacity="0.501961" points="116,47 89,41 115,58" />
<polygon fill="#010005" fill-opacity="0.501961" points="-9,67 32,99 -16,101" />
<polygon fill="#133963" fill-opacity="0.501961" points="110,35 88,27 67,49" />
<polygon fill="#082144" fill-opacity="0.501961" points="123,-16 144,17 170,22" />
<polygon fill="#0a080d" fill-opacity="0.501961" points="66,111 90,102 57,101" />
<polygon fill="#000000" fill-opacity="0.501961" points="237,102 238,114 243,102" />
<polygon fill="#020006" fill-opacity="0.501961" points="129,172 250,185 270,150" />
<polygon fill="#010002" fill-opacity="0.501961" points="203,82 249,96 186,94" />
<polygon fill="#3d4256" fill-opacity="0.501961" points="133,106 148,105 147,109" />
<polygon fill="#222730" fill-opacity="0.501961" points="110,98 99,101 94,97" />
<polygon fill="#020005" fill-opacity="0.501961" points="92,105 110,99 126,105" />
<polygon fill="#121b26" fill-opacity="0.501961" points="271,118 205,125 238,131" />
<polygon fill="#253958" fill-opacity="0.501961" points="27,53 45,70 77,54" />
<polygon fill="#3e354b" fill-opacity="0.501961" points="67,70 84,78 89,71" />
<polygon fill="#050307" fill-opacity="0.501961" points="141,86 85,98 33,76" />
<polygon fill="#252d3f" fill-opacity="0.501961" points="172,117 148,111 132,123" />
<polygon fill="#2f3952" fill-opacity="0.501961" points="183,105 148,113 190,116" />
<polygon fill="#121c26" fill-opacity="0.501961" points="198,128 158,130 182,121" />
<polygon fill="#060710" fill-opacity="0.501961" points="120,158 9,155 70,139" />
<polygon fill="#070509" fill-opacity="0.501961" points="198,107 190,100 220,103" />
<polygon fill="#142640" fill-opacity="0.501961" points="-16,54 48,37 25,26" />
<polygon fill="#0d0b0b" fill-opacity="0.501961" points="144,98 160,106 162,101" />
<polygon fill="#543b43" fill-opacity="0.501961" points="18,70 32,68 46,74" />
<polygon fill="#2d477d" fill-opacity="0.501961" points="104,23 109,34 112,18" />
<polygon fill="#192f4f" fill-opacity="0.501961" points="177,53 114,23 120,47" />
<polygon fill="#0e1627" fill-opacity="0.501961" points="187,-7 271,73 246,25" />
<polygon fill="#000004" fill-opacity="0.501961" points="7,114 -16,102 24,107" />
<polygon fill="#1d2b39" fill-opacity="0.501961" points="41,116 51,126 7,123" />
<polygon fill="#1b2531" fill-opacity="0.501961" points="254,120 250,111 245,123" />
<polygon fill="#1e354e" fill-opacity="0.501961" points="95,114 104,129 83,117" />
<polygon fill="#0b0709" fill-opacity="0.501961" points="89,77 69,84 97,83" />
<polygon fill="#112340" fill-opacity="0.501961" points="135,18 107,6 131,32" />
<polygon fill="#12121c" fill-opacity="0.501961" points="31,104 14,98 2,103" />
<polygon fill="#0c131c" fill-opacity="0.501961" points="113,128 95,148 157,129" />
<polygon fill="#020005" fill-opacity="0.501961" points="53,102 50,112 20,107" />
<polygon fill="#121014" fill-opacity="0.501961" points="184,103 187,107 194,98" />
<polygon fill="#0a0c16" fill-opacity="0.501961" points="240,147 269,131 197,137" />
<polygon fill="#583c3e" fill-opacity="0.501961" points="134,109 123,110 119,105" />
<polygon fill="#514156" fill-opacity="0.501961" points="126,78 133,83 143,76" />
<polygon fill="#2f5aa0" fill-opacity="0.501961" points="110,48 112,55 113,52" />
<polygon fill="#232b3a" fill-opacity="0.501961" points="223,121 239,117 224,109" />
<polygon fill="#21385e" fill-opacity="0.501961" points="101,25 115,26 105,41" />
<polygon fill="#3d5c8f" fill-opacity="0.501961" points="109,58 104,55 94,71" />
<polygon fill="#213d64" fill-opacity="0.501961" points="146,58 135,50 123,71" />
<polygon fill="#38597f" fill-opacity="0.501961" points="94,76 105,77 99,67" />
<polygon fill="#1a2033" fill-opacity="0.501961" points="233,48 230,81 253,67" />
<polygon fill="#26324b" fill-opacity="0.501961" points="30,52 -5,69 42,63" />
<polygon fill="#454057" fill-opacity="0.501961" points="43,71 60,70 54,67" />
<polygon fill="#464150" fill-opacity="0.501961" points="195,111 201,110 190,105" />
<polygon fill="#141720" fill-opacity="0.501961" points="201,80 217,84 215,79" />
<polygon fill="#182c45" fill-opacity="0.501961" points="109,128 103,126 115,117" />
<polygon fill="#5d6fa3" fill-opacity="0.501961" points="108,65 111,72 101,70" />
<polygon fill="#384568" fill-opacity="0.501961" points="127,78 155,60 122,67" />
<polygon fill="#3f384a" fill-opacity="0.501961" points="68,111 90,112 66,118" />
<polygon fill="#081d35" fill-opacity="0.501961" points="94,-3 26,24 22,5" />
<polygon fill="#3a2733" fill-opacity="0.501961" points="54,75 64,74 69,79" />
<polygon fill="#17181c" fill-opacity="0.501961" points="131,95 116,96 119,105" />
<polygon fill="#2f3041" fill-opacity="0.501961" points="81,120 64,119 91,110" />
<polygon fill="#3c4963" fill-opacity="0.501961" points="110,118 90,111 107,111" />
<polygon fill="#010006" fill-opacity="0.501961" points="245,100 261,114 216,101" />
<polygon fill="#191f27" fill-opacity="0.501961" points="72,103 80,99 60,99" />
<polygon fill="#2d3b5b" fill-opacity="0.501961" points="138,69 155,85 166,58" />
<polygon fill="#273047" fill-opacity="0.501961" points="205,112 169,113 189,118" />
<polygon fill="#070609" fill-opacity="0.501961" points="144,102 141,90 145,84" />
<polygon fill="#06050c" fill-opacity="0.501961" points="8,93 23,101 9,101" />
<polygon fill="#3c3143" fill-opacity="0.501961" points="92,77 76,78 79,72" />
<polygon fill="#5d4752" fill-opacity="0.501961" points="112,81 119,80 120,84" />
<polygon fill="#281c24" fill-opacity="0.501961" points="126,106 140,106 135,109" />
<polygon fill="#43313a" fill-opacity="0.501961" points="63,110 31,114 51,120" />
<polygon fill="#091a35" fill-opacity="0.501961" points="158,-12 146,5 184,13" />
<polygon fill="#363d52" fill-opacity="0.501961" points="155,112 162,105 183,108" />
<polygon fill="#1f2632" fill-opacity="0.501961" points="242,124 245,121 242,110" />
<polygon fill="#1d3a60" fill-opacity="0.501961" points="95,52 52,68 75,44" />
<polygon fill="#172b48" fill-opacity="0.501961" points="10,49 53,26 37,50" />
<polygon fill="#0e294f" fill-opacity="0.501961" points="130,3 140,22 153,16" />
<polygon fill="#171823" fill-opacity="0.501961" points="251,80 270,76 264,82" />
<polygon fill="#08060a" fill-opacity="0.501961" points="58,106 85,102 85,110" />
<polygon fill="#03050b" fill-opacity="0.501961" points="271,27 264,-14 226,-16" />
<polygon fill="#111014" fill-opacity="0.501961" points="203,100 179,102 187,106" />
<polygon fill="#3b3f55" fill-opacity="0.501961" points="137,105 145,112 141,113" />
<polygon fill="#254674" fill-opacity="0.501961" points="116,57 98,39 100,51" />
<polygon fill="#5d505e" fill-opacity="0.501961" points="150,104 148,107 153,106" />
<polygon fill="#081324" fill-opacity="0.501961" points="-12,18 -16,49 29,-7" />
<polygon fill="#020107" fill-opacity="0.501961" points="117,167 47,185 -16,163" />
<polygon fill="#193a6a" fill-opacity="0.501961" points="104,10 99,20 106,33" />
<polygon fill="#2e5195" fill-opacity="0.501961" points="109,23 103,20 113,21" />
<polygon fill="#2c4775" fill-opacity="0.501961" points="122,57 131,53 134,66" />
<polygon fill="#070e1b" fill-opacity="0.501961" points="263,30 216,0 228,-15" />
<polygon fill="#0b1929" fill-opacity="0.501961" points="114,127 106,128 109,142" />
<polygon fill="#090913" fill-opacity="0.501961" points="115,136 102,158 124,143" />
<polygon fill="#000000" fill-opacity="0.501961" points="177,101 167,104 178,104" />
<polygon fill="#2e344c" fill-opacity="0.501961" points="156,83 199,82 187,69" />
<polygon fill="#090c17" fill-opacity="0.501961" points="26,135 -11,144 48,148" />
<polygon fill="#15171e" fill-opacity="0.501961" points="78,104 74,107 85,105" />
<polygon fill="#0d0e16" fill-opacity="0.501961" points="185,143 136,136 160,129" />
<polygon fill="#21253b" fill-opacity="0.501961" points="232,79 204,80 232,58" />
<polygon fill="#383d57" fill-opacity="0.501961" points="190,114 173,106 193,108" />
<polygon fill="#253143" fill-opacity="0.501961" points="120,127 115,106 110,114" />
<polygon fill="#151b24" fill-opacity="0.501961" points="177,128 147,131 140,120" />
<polygon fill="#41292b" fill-opacity="0.501961" points="69,112 73,109 80,109" />
<polygon fill="#141012" fill-opacity="0.501961" points="200,84 171,85 188,89" />
<polygon fill="#13151a" fill-opacity="0.501961" points="142,96 146,105 127,102" />
<polygon fill="#252b3e" fill-opacity="0.501961" points="12,66 -8,74 -16,46" />
<polygon fill="#29303f" fill-opacity="0.501961" points="221,111 219,116 234,113" />
<polygon fill="#000002" fill-opacity="0.501961" points="95,86 68,94 116,93" />
<polygon fill="#1a3863" fill-opacity="0.501961" points="120,45 110,45 119,33" />
<polygon fill="#1a2c4d" fill-opacity="0.501961" points="117,13 110,32 122,25" />
<polygon fill="#040108" fill-opacity="0.501961" points="-16,66 -16,90 7,116" />
<polygon fill="#03060c" fill-opacity="0.501961" points="23,-11 -16,3 -3,8" />
<polygon fill="#000000" fill-opacity="0.501961" points="187,96 170,90 187,89" />
<polygon fill="#465072" fill-opacity="0.501961" points="103,117 109,114 104,122" />
<polygon fill="#0c223d" fill-opacity="0.501961" points="91,2 39,12 33,31" />
<polygon fill="#2c4667" fill-opacity="0.501961" points="83,67 97,72 94,78" />
<polygon fill="#111114" fill-opacity="0.501961" points="88,95 95,98 107,94" />
<polygon fill="#1a1b1d" fill-opacity="0.501961" points="144,105 151,103 140,100" />
<polygon fill="#1b110d" fill-opacity="0.501961" points="222,85 229,80 218,82" />
<polygon fill="#1e3e65" fill-opacity="0.501961" points="109,63 121,54 117,50" />
<polygon fill="#091427" fill-opacity="0.501961" points="182,4 230,16 194,-16" />
<polygon fill="#694a46" fill-opacity="0.501961" points="146,85 152,84 148,83" />
<polygon fill="#313a4e" fill-opacity="0.501961" points="138,78 144,84 161,82" />
<polygon fill="#233252" fill-opacity="0.501961" points="197,63 141,43 186,75" />
<polygon fill="#342837" fill-opacity="0.501961" points="110,81 103,82 98,78" />
<polygon fill="#0f2446" fill-opacity="0.501961" points="114,-12 89,8 99,10" />
<polygon fill="#393b50" fill-opacity="0.501961" points="105,110 112,106 122,112" />
<polygon fill="#19110c" fill-opacity="0.501961" points="159,84 170,86 161,87" />
<polygon fill="#12121b" fill-opacity="0.501961" points="222,98 228,101 239,98" />
<polygon fill="#09080e" fill-opacity="0.501961" points="59,111 54,101 66,101" />
<polygon fill="#3f5075" fill-opacity="0.501961" points="120,69 115,63 124,66" />
<polygon fill="#0c141e" fill-opacity="0.501961" points="218,128 190,129 212,141" />
<polygon fill="#030205" fill-opacity="0.501961" points="174,93 216,83 254,97" />
<polygon fill="#2e3a59" fill-opacity="0.501961" points="162,85 157,63 163,73" />
<polygon fill="#16151e" fill-opacity="0.501961" points="218,113 212,109 215,114" />
<polygon fill="#181f1f" fill-opacity="0.501961" points="179,99 165,99 172,96" />
</g>
</svg>